{
  "accessors": [
    {
      "bufferView": 1,
      "componentType": 5126,
      "count": 3550,
      "max": [
        55.68633270263672,
        110.2928237915039,
        25.799999237060547
      ],
      "min": [
        -55.68633270263672,
        -1.0882519483566284,
        -22.5
      ],
      "type": "VEC3"
    },
    {
      "bufferView": 1,
      "byteOffset": 42600,
      "componentType": 5126,
      "count": 3550,
      "max": [
        1.0,
        1.0,
        1.0
      ],
      "min": [
        -1.0,
        -0.9999983906745911,
        -1.0
      ],
      "type": "VEC3"
    },
    {
      "bufferView": 1,
      "byteOffset": 85200,
      "componentType": 5126,
      "count": 3550,
      "max": [
        0.7803921699523926,
        0.7607843279838562,
        0.7411764860153198
      ],
      "min": [
        0.2980392277240753,
        0.2980392277240753,
        0.2980392277240753
      ],
      "type": "VEC3"
    },
    {
      "bufferView": 0,
      "componentType": 5125,
      "count": 10557,
      "type": "SCALAR"
    },
    {
      "bufferView": 1,
      "byteOffset": 127800,
      "componentType": 5126,
      "count": 9786,
      "max": [
        54.5229606628418,
        110.2928237915039,
        26.5
      ],
      "min": [
        -54.5229606628418,
        -0.6858799457550049,
        -22.5
      ],
      "type": "VEC3"
    },
    {
      "bufferView": 1,
      "byteOffset": 245232,
      "componentType": 5126,
      "count": 9786,
      "max": [
        1.0,
        1.0,
        1.0
      ],
      "min": [
        -1.0,
        -1.0,
        -0.99883633852005
      ],
      "type": "VEC3"
    },
    {
      "bufferView": 1,
      "byteOffset": 362664,
      "componentType": 5126,
      "count": 9786,
      "max": [
        0.7803921699523926,
        0.7607843279838562,
        0.7411764860153198
      ],
      "min": [
        0.2980392277240753,
        0.2980392277240753,
        0.2980392277240753
      ],
      "type": "VEC3"
    },
    {
      "bufferView": 0,
      "byteOffset": 42228,
      "componentType": 5125,
      "count": 30015,
      "type": "SCALAR"
    },
    {
      "bufferView": 1,
      "byteOffset": 480096,
      "componentType": 5126,
      "count": 9555,
      "max": [
        55.69073486328125,
        105.8146743774414,
        26.0
      ],
      "min": [
        -55.69073486328125,
        12.61381721496582,
        -21.943477630615234
      ],
      "type": "VEC3"
    },
    {
      "bufferView": 1,
      "byteOffset": 594756,
      "componentType": 5126,
      "count": 9555,
      "max": [
        0.9996150135993958,
        0.9999999403953552,
        1.0
      ],
      "min": [
        -0.999614953994751,
        -1.0,
        -0.9977197051048279
      ],
      "type": "VEC3"
    },
    {
      "bufferView": 1,
      "byteOffset": 709416,
      "componentType": 5126,
      "count": 9555,
      "max": [
        0.7803921699523926,
        0.7607843279838562,
        0.7529411911964417
      ],
      "min": [
        0.2980392277240753,
        0.2980392277240753,
        0.2980392277240753
      ],
      "type": "VEC3"
    },
    {
      "bufferView": 0,
      "byteOffset": 162288,
      "componentType": 5125,
      "count": 48888,
      "type": "SCALAR"
    },
    {
      "bufferView": 1,
      "byteOffset": 824076,
      "componentType": 5126,
      "count": 9737,
      "max": [
        54.15685272216797,
        110.2928237915039,
        22.5
      ],
      "min": [
        -54.70182800292969,
        3.619591236114502,
        -21.943477630615234
      ],
      "type": "VEC3"
    },
    {
      "bufferView": 1,
      "byteOffset": 940920,
      "componentType": 5126,
      "count": 9737,
      "max": [
        0.999511182308197,
        0.9994735717773438,
        0.9952002167701721
      ],
      "min": [
        -0.9968376159667969,
        -0.9951572418212891,
        -0.9977197051048279
      ],
      "type": "VEC3"
    },
    {
      "bufferView": 1,
      "byteOffset": 1057764,
      "componentType": 5126,
      "count": 9737,
      "max": [
        0.2980392277240753,
        0.2980392277240753,
        0.2980392277240753
      ],
      "min": [
        0.2980392277240753,
        0.2980392277240753,
        0.2980392277240753
      ],
      "type": "VEC3"
    },
    {
      "bufferView": 0,
      "byteOffset": 357840,
      "componentType": 5125,
      "count": 50577,
      "type": "SCALAR"
    },
    {
      "bufferView": 1,
      "byteOffset": 1174608,
      "componentType": 5126,
      "count": 9856,
      "max": [
        55.69073486328125,
        110.2928237915039,
        22.5
      ],
      "min": [
        -55.69073486328125,
        -1.088756799697876,
        -21.943477630615234
      ],
      "type": "VEC3"
    },
    {
      "bufferView": 1,
      "byteOffset": 1292880,
      "componentType": 5126,
      "count": 9856,
      "max": [
        0.9999682307243347,
        0.9999986290931702,
        1.0
      ],
      "min": [
        -0.9999682307243347,
        -0.9998063445091248,
        -1.0
      ],
      "type": "VEC3"
    },
    {
      "bufferView": 1,
      "byteOffset": 1411152,
      "componentType": 5126,
      "count": 9856,
      "max": [
        0.2980392277240753,
        0.2980392277240753,
        0.2980392277240753
      ],
      "min": [
        0.2980392277240753,
        0.2980392277240753,
        0.2980392277240753
      ],
      "type": "VEC3"
    },
    {
      "bufferView": 0,
      "byteOffset": 560148,
      "componentType": 5125,
      "count": 50235,
      "type": "SCALAR"
    },
    {
      "bufferView": 1,
      "byteOffset": 1529424,
      "componentType": 5126,
      "count": 9621,
      "max": [
        42.218284606933594,
        100.38185119628906,
        22.5
      ],
      "min": [
        -55.68633270263672,
        -1.088756799697876,
        -21.943477630615234
      ],
      "type": "VEC3"
    },
    {
      "bufferView": 1,
      "byteOffset": 1644876,
      "componentType": 5126,
      "count": 9621,
      "max": [
        0.9546960592269897,
        0.9999938011169434,
        0.9952002167701721
      ],
      "min": [
        -0.9997733235359192,
        -0.9997888803482056,
        -0.9977196455001831
      ],
      "type": "VEC3"
    },
    {
      "bufferView": 1,
      "byteOffset": 1760328,
      "componentType": 5126,
      "count": 9621,
      "max": [
        0.2980392277240753,
        0.2980392277240753,
        0.2980392277240753
      ],
      "min": [
        0.2980392277240753,
        0.2980392277240753,
        0.2980392277240753
      ],
      "type": "VEC3"
    },
    {
      "bufferView": 0,
      "byteOffset": 761088,
      "componentType": 5125,
      "count": 50004,
      "type": "SCALAR"
    }
  ],
  "asset": {
    "extras": {
      "author": "lm9241221 (https://sketchfab.com/lm9241221)",
      "license": "CC-BY-4.0 (http://creativecommons.org/licenses/by/4.0/)",
      "source": "https://sketchfab.com/3d-models/pneu-militar-d930940ff5b449a4a2d167d6210d13a3",
      "title": "pneu militar"
    },
    "generator": "Sketchfab-13.74.0",
    "version": "2.0"
  },
  "bufferViews": [
    {
      "buffer": 0,
      "byteLength": 961104,
      "name": "floatBufferViews",
      "target": 34963
    },
    {
      "buffer": 0,
      "byteLength": 1875780,
      "byteOffset": 961104,
      "byteStride": 12,
      "name": "floatBufferViews",
      "target": 34962
    }
  ],
  "buffers": [
    {
      "byteLength": 2836884,
      "uri": "scene.bin"
    }
  ],
  "materials": [
    {
      "doubleSided": true,
      "name": "Scene_-_Root",
      "pbrMetallicRoughness": {
        "baseColorFactor": [
          0.3702868427789494,
          0.3702868427789494,
          0.3702868427789494,
          1.0
        ],
        "roughnessFactor": 0.4373346661627921
      }
    }
  ],
  "meshes": [
    {
      "name": "Object_0",
      "primitives": [
        {
          "attributes": {
            "COLOR_0": 2,
            "NORMAL": 1,
            "POSITION": 0
          },
          "indices": 3,
          "material": 0,
          "mode": 4
        }
      ]
    },
    {
      "name": "Object_1",
      "primitives": [
        {
          "attributes": {
            "COLOR_0": 6,
            "NORMAL": 5,
            "POSITION": 4
          },
          "indices": 7,
          "material": 0,
          "mode": 4
        }
      ]
    },
    {
      "name": "Object_2",
      "primitives": [
        {
          "attributes": {
            "COLOR_0": 10,
            "NORMAL": 9,
            "POSITION": 8
          },
          "indices": 11,
          "material": 0,
          "mode": 4
        }
      ]
    },
    {
      "name": "Object_3",
      "primitives": [
        {
          "attributes": {
            "COLOR_0": 14,
            "NORMAL": 13,
            "POSITION": 12
          },
          "indices": 15,
          "material": 0,
          "mode": 4
        }
      ]
    },
    {
      "name": "Object_4",
      "primitives": [
        {
          "attributes": {
            "COLOR_0": 18,
            "NORMAL": 17,
            "POSITION": 16
          },
          "indices": 19,
          "material": 0,
          "mode": 4
        }
      ]
    },
    {
      "name": "Object_5",
      "primitives": [
        {
          "attributes": {
            "COLOR_0": 22,
            "NORMAL": 21,
            "POSITION": 20
          },
          "indices": 23,
          "material": 0,
          "mode": 4
        }
      ]
    }
  ],
  "nodes": [
    {
      "children": [
        1
      ],
      "name": "Sketchfab_model"
    },
    {
      "children": [
        2,
        3,
        4,
        5,
        6,
        7
      ],
      "name": "Geode"
    },
    {
      "mesh": 0,
      "name": "Object_2"
    },
    {
      "mesh": 1,
      "name": "Object_3"
    },
    {
      "mesh": 2,
      "name": "Object_4"
    },
    {
      "mesh": 3,
      "name": "Object_5"
    },
    {
      "mesh": 4,
      "name": "Object_6"
    },
    {
      "mesh": 5,
      "name": "Object_7"
    }
  ],
  "scene": 0,
  "scenes": [
    {
      "name": "Sketchfab_Scene",
      "nodes": [
        0
      ]
    }
  ]
}
